<svg width="18" height="18" viewBox="0 0 18 18" fill="none" xmlns="http://www.w3.org/2000/svg">
<g clip-path="url(#clip0)">
<path d="M0.401536 7.76076C0.114917 8.16232 -0.0155304 8.65458 0.0346138 9.14538C0.0299866 9.19142 0.0299866 9.2378 0.0346138 9.28384C0.0286629 9.33906 0.0286629 9.39477 0.0346138 9.44999C0.0987522 9.66416 0.175029 9.8745 0.263074 10.08C0.398912 10.454 0.645019 10.7779 0.968875 11.0091C1.29273 11.2402 1.6791 11.3677 2.07692 11.3746L4.96384 11.3746C4.93719 12.1371 4.86785 12.8975 4.75615 13.6523C4.60512 14.1811 4.53281 14.7293 4.54154 15.2792C4.54718 15.708 4.62923 16.1323 4.78384 16.5323C4.90708 16.8374 5.08282 17.1186 5.30308 17.3631C5.56006 17.6565 5.9007 17.8643 6.27923 17.9585C6.50797 18.0017 6.7428 18.0017 6.97154 17.9585C7.22438 17.913 7.46215 17.806 7.66385 17.6469C7.85803 17.4764 7.99769 17.2525 8.06538 17.0031C8.11368 16.8531 8.13934 16.6968 8.14154 16.5392C8.14451 16.3603 8.12827 16.1816 8.09308 16.0061C8.08464 15.9256 8.08464 15.8444 8.09308 15.7638C8.26368 14.9786 8.49515 14.2078 8.78538 13.4585C8.88231 13.23 8.99308 12.9946 9.11769 12.7661C9.60376 11.7458 10.2671 10.8199 11.0769 10.0315C11.4071 9.72955 11.7927 9.49444 12.2123 9.33922C12.3002 9.59855 12.4669 9.82398 12.689 9.98407C12.9112 10.1442 13.1777 10.2309 13.4515 10.2323L16.6985 10.2323C17.0384 10.2306 17.3643 10.0967 17.6072 9.85897C17.8501 9.62121 17.991 9.29825 18 8.95845L18 1.34307C18.0046 1.16893 17.9744 0.995621 17.9111 0.833311C17.8479 0.671001 17.7529 0.522955 17.6316 0.397858C17.5104 0.27276 17.3654 0.17313 17.2052 0.104809C17.0449 0.0364858 16.8727 0.000850776 16.6985 -9.42292e-06L13.4515 -9.13906e-06C13.1057 0.00182004 12.7747 0.140482 12.5308 0.385668C12.2869 0.630854 12.15 0.962622 12.15 1.30845L12.15 7.91307C11.3882 8.09678 10.6856 8.47075 10.1077 8.99999C9.16014 9.89153 8.38148 10.9469 7.80923 12.1154C7.67769 12.3923 7.55308 12.6415 7.44231 12.8977C7.09585 13.7813 6.82939 14.6942 6.64615 15.6254C6.61718 15.839 6.61718 16.0556 6.64615 16.2692C6.65212 16.3453 6.65212 16.4216 6.64615 16.4977C6.65291 16.5482 6.65291 16.5994 6.64615 16.65C6.64615 16.6085 6.64615 16.5808 6.64615 16.56L6.71538 16.8992L6.53538 16.56C6.44296 16.5312 6.36107 16.4759 6.3 16.4008C6.18953 16.2821 6.1026 16.1434 6.04385 15.9923C5.9768 15.7444 5.95338 15.4867 5.97461 15.2308C5.9734 14.8116 6.03167 14.3943 6.14769 13.9915L6.14769 13.9154C6.28201 12.998 6.35831 12.0731 6.37615 11.1461C6.37204 10.8291 6.24986 10.5251 6.03349 10.2933C5.81713 10.0616 5.52213 9.91889 5.20615 9.89307L2.07692 9.89307C1.97004 9.894 1.86547 9.86191 1.7775 9.8012C1.68952 9.74048 1.62243 9.6541 1.58538 9.55384C1.49538 9.33922 1.44692 9.20076 1.43307 9.16615C1.43574 9.12003 1.43574 9.0738 1.43307 9.02768C1.40462 8.87925 1.43437 8.72555 1.51615 8.59845L1.57846 8.5223C1.68994 8.40274 1.78324 8.26745 1.85538 8.12076C1.93675 7.95417 1.96511 7.76665 1.93664 7.58345C1.90817 7.40025 1.82424 7.23018 1.69615 7.09615C1.64983 7.02987 1.61257 6.95769 1.58538 6.88153C1.58538 6.88153 1.58538 6.72922 2.06308 6.33461C2.28424 6.18129 2.44949 5.96015 2.53384 5.70461C2.57546 5.53398 2.58095 5.35653 2.54995 5.18366C2.51895 5.01078 2.45215 4.8463 2.35384 4.70076C2.34672 4.65604 2.35127 4.61024 2.36703 4.56779C2.3828 4.52534 2.40926 4.48768 2.44384 4.45845C2.60427 4.40623 2.75094 4.3187 2.87307 4.2023C3.01902 4.05826 3.1197 3.87473 3.16274 3.67425C3.20579 3.47377 3.18933 3.26509 3.11538 3.07384C3.08424 2.98607 3.04724 2.90049 3.00461 2.81768C3.00461 2.7623 2.97 2.74153 3.00461 2.70691C3.08161 2.63109 3.174 2.57269 3.27552 2.53567C3.37705 2.49864 3.48534 2.48385 3.59308 2.4923L9 2.4923C9.19095 2.4923 9.37409 2.41644 9.50911 2.28142C9.64414 2.14639 9.72 1.96325 9.72 1.7723C9.72 1.58134 9.64414 1.39821 9.50911 1.26318C9.37409 1.12816 9.19095 1.0523 9 1.0523L3.56538 1.0523C3.23664 1.04424 2.91032 1.11038 2.61067 1.24583C2.31102 1.38127 2.04576 1.58252 1.83461 1.83461C1.59212 2.14712 1.48266 2.54266 1.53 2.93538C1.5443 3.04981 1.5746 3.16167 1.62 3.26768C1.33303 3.45798 1.11227 3.73274 0.988253 4.05396C0.86423 4.37518 0.843068 4.72699 0.927691 5.06076C0.949258 5.14442 0.979417 5.22562 1.01769 5.30307C0.263074 5.92615 -0.0276938 6.58384 0.159228 7.2623C0.217366 7.43853 0.298862 7.60618 0.401536 7.76076ZM13.5554 8.83384L13.5554 1.43307L16.5669 1.43307L16.5669 8.83384L13.5554 8.83384Z" fill="#080F22"/>
</g>
<defs>
<clipPath id="clip0">
<rect width="18" height="18" fill="white" transform="translate(18 18) rotate(180)"/>
</clipPath>
</defs>
</svg>
