<svg width="11" height="20" viewBox="0 0 11 20" fill="none" xmlns="http://www.w3.org/2000/svg" class="mr-2">
    <g clip-path="url(#clip0)">
        <path d="M7.18258 16.6933H3.82537C3.72032 16.7045 3.62389 16.7567 3.55693 16.8386C3.48998 16.9205 3.45788 17.0256 3.46758 17.1311V17.1311V17.2639C3.45827 17.3695 3.49047 17.4745 3.55732 17.5566C3.62416 17.6387 3.72036 17.6914 3.82537 17.7033H7.18258C7.28817 17.6921 7.38515 17.6398 7.45265 17.5576C7.52015 17.4754 7.55279 17.37 7.54352 17.2639V17.1311C7.5524 17.0254 7.51983 16.9203 7.45273 16.8383C7.38564 16.7562 7.28929 16.7037 7.18416 16.6917L7.18258 16.6933Z" fill="#00CC66"></path>
        <path d="M7.18259 17.942H3.82538C3.65712 17.9306 3.50011 17.8532 3.38831 17.7266C3.27652 17.6 3.21893 17.4343 3.22801 17.2655V17.1327C3.22586 16.943 3.29835 16.7602 3.42976 16.6237C3.53436 16.5176 3.6766 16.4574 3.82538 16.4562H7.18417C7.35214 16.468 7.50875 16.5455 7.62022 16.6721C7.73168 16.7986 7.78905 16.9641 7.77996 17.1327V17.2655C7.78946 17.4344 7.73201 17.6003 7.62013 17.727C7.50825 17.8537 7.351 17.931 7.18259 17.942V17.942ZM3.82538 16.9304C3.80127 16.9318 3.77866 16.9426 3.76233 16.9604C3.72122 17.0076 3.69928 17.0685 3.70086 17.1311V17.2655C3.70086 17.3809 3.76706 17.4678 3.82538 17.4678H7.18259C7.24091 17.4678 7.30711 17.3809 7.30711 17.2655V17.1327C7.30711 17.0173 7.24249 16.9304 7.18417 16.9304H3.82538Z" fill="#00CC66"></path>
        <path d="M6.76016 18.7513H4.25564C4.14622 18.7586 4.04406 18.8088 3.97122 18.891C3.89839 18.9732 3.86071 19.0809 3.86633 19.1907V19.3235C3.86116 19.4327 3.89913 19.5396 3.972 19.621C4.04487 19.7023 4.14678 19.7516 4.25564 19.7582H6.76016C6.86988 19.7516 6.97253 19.7017 7.04554 19.6193C7.11854 19.5369 7.15593 19.4288 7.14947 19.3187V19.186C7.15382 19.0769 7.11557 18.9705 7.04286 18.8893C6.97015 18.8081 6.86872 18.7586 6.76016 18.7513V18.7513Z" fill="#00CC66"></path>
        <path d="M4.2257 20C4.08386 19.9966 3.94838 19.9403 3.84585 19.8419C3.70813 19.7075 3.62884 19.5241 3.62518 19.3314V19.1907C3.62628 19.0937 3.64664 18.9979 3.68507 18.9089C3.7235 18.8199 3.77923 18.7394 3.849 18.6722C3.90354 18.6197 3.96806 18.5786 4.03872 18.5514C4.10938 18.5243 4.18475 18.5116 4.26037 18.5142H6.75701C6.90754 18.5112 7.05314 18.568 7.16208 18.6722C7.30096 18.8061 7.38141 18.9897 7.38589 19.1828V19.3235C7.38465 19.4207 7.36424 19.5167 7.32582 19.6059C7.28741 19.6952 7.23176 19.7759 7.16208 19.8435C7.10758 19.8962 7.04308 19.9373 6.97241 19.9645C6.90174 19.9916 6.82634 20.0042 6.7507 20.0016H4.22885L4.2257 20ZM4.24304 18.9884C4.21489 18.9882 4.18777 18.999 4.16738 19.0184C4.12097 19.0669 4.095 19.1314 4.09488 19.1986V19.3235C4.09555 19.3882 4.12159 19.4501 4.16738 19.4958C4.17586 19.5058 4.18652 19.5137 4.19855 19.5189C4.21058 19.5241 4.22365 19.5265 4.23673 19.5258H6.75858C6.77331 19.5265 6.78803 19.5242 6.80185 19.5191C6.81567 19.5139 6.8283 19.506 6.83897 19.4958C6.86237 19.4721 6.88084 19.4439 6.89329 19.413C6.90573 19.382 6.91192 19.3489 6.91147 19.3156V19.1907C6.90983 19.1262 6.88393 19.0646 6.83897 19.0184C6.82021 18.9994 6.79471 18.9886 6.76804 18.9884H4.24619H4.24304Z" fill="#00CC66"></path>
        <path d="M5.50397 4.18873C6.32178 4.18991 7.12336 4.41766 7.82025 4.84685C8.51714 5.27604 9.08224 5.88997 9.45318 6.62089C9.82413 7.35181 9.98649 8.1713 9.92235 8.98892C9.85822 9.80653 9.57007 10.5905 9.08973 11.2542L9.07239 11.2764L9.0582 11.2985C8.14876 12.7337 7.63966 13.8102 7.3859 14.8218H3.62519C3.37616 13.8102 2.85603 12.7337 1.95131 11.3017L1.93713 11.2795L1.92137 11.2574C1.43969 10.594 1.15033 9.80994 1.0853 8.9919C1.02026 8.17386 1.18208 7.35372 1.55285 6.62216C1.92363 5.8906 2.48892 5.27612 3.18622 4.84666C3.88352 4.4172 4.68567 4.1895 5.50397 4.18873V4.18873ZM5.50397 3.36204C4.53215 3.36128 3.5791 3.63039 2.75045 4.13954C1.92179 4.64868 1.2499 5.37799 0.809225 6.24662C0.368554 7.11526 0.17632 8.08929 0.253828 9.06078C0.331336 10.0323 0.675559 10.9633 1.24835 11.7506C2.17355 13.2095 2.66689 14.2796 2.87652 15.3023C2.89573 15.4031 2.94966 15.494 3.02889 15.559C3.10811 15.624 3.2076 15.659 3.30996 15.6579H7.6964C7.79804 15.6582 7.89656 15.6228 7.97487 15.5578C8.05318 15.4929 8.10634 15.4025 8.12512 15.3023C8.32844 14.2638 8.82651 13.1984 9.75487 11.7427C10.3271 10.9552 10.6708 10.0243 10.748 9.05303C10.8252 8.08176 10.6329 7.10801 10.1923 6.23959C9.75173 5.37116 9.08011 4.64195 8.25181 4.13268C7.4235 3.62341 6.47082 3.35395 5.49924 3.35414L5.50397 3.36204Z" fill="#00CC66"></path>
        <path d="M7.6964 15.895H3.30995C3.15357 15.8947 3.00213 15.84 2.88143 15.7403C2.76073 15.6406 2.67822 15.502 2.64797 15.3481C2.4478 14.3634 1.9718 13.3249 1.0529 11.8707C0.479683 11.076 0.128165 10.1424 0.0345769 9.16612C-0.0590113 8.18983 0.108717 7.20616 0.520472 6.31653C0.932226 5.42689 1.57311 4.66348 2.37706 4.10497C3.18101 3.54646 4.11894 3.21307 5.09416 3.13917L5.07998 3.11704H5.50239C6.51768 3.11642 7.51332 3.39778 8.37892 3.92991C9.24452 4.46204 9.94628 5.22417 10.4064 6.13181C10.8665 7.03944 11.067 8.05712 10.9857 9.07204C10.9043 10.087 10.5443 11.0595 9.94558 11.8818C9.0251 13.3312 8.54752 14.3713 8.35366 15.3481C8.32412 15.5015 8.24246 15.6398 8.12261 15.7395C8.00276 15.8393 7.85213 15.8942 7.6964 15.895V15.895ZM3.30995 15.4208H7.6964C7.74215 15.4211 7.78658 15.4055 7.82219 15.3767C7.8578 15.3479 7.8824 15.3077 7.89184 15.2628C8.09517 14.2227 8.59323 13.1336 9.55469 11.6273C10.0939 10.8903 10.4232 10.0202 10.5073 9.11006C10.5914 8.19989 10.4271 7.28392 10.032 6.46019C9.63695 5.63645 9.02596 4.93595 8.26445 4.43365C7.50294 3.93136 6.61956 3.64617 5.70887 3.60862H5.50396C4.57724 3.60899 3.66865 3.86629 2.87861 4.35209C2.08857 4.83789 1.44783 5.53328 1.0272 6.3614C0.606566 7.18953 0.422417 8.11815 0.4951 9.04466C0.567783 9.97117 0.894468 10.8595 1.43906 11.6115C2.39894 13.1194 2.89542 14.2085 3.10821 15.2549C3.11797 15.2999 3.14288 15.3402 3.17876 15.3689C3.21463 15.3977 3.25929 15.4133 3.30523 15.4129L3.30995 15.4208ZM7.56558 15.0589H3.43762L3.39349 14.8787C3.15234 13.9097 2.66215 12.8728 1.74956 11.4281L1.7338 11.3949C1.22787 10.6964 0.924115 9.87126 0.856027 9.01059C0.78794 8.14993 0.958162 7.28712 1.34793 6.5173C1.73769 5.74748 2.33186 5.10055 3.06493 4.64783C3.79799 4.19511 4.64148 3.95418 5.50239 3.95162V3.95162C6.36448 3.95121 7.20988 4.18994 7.94508 4.64142C8.68029 5.09289 9.27663 5.73951 9.66816 6.50975C10.0597 7.28 10.2311 8.14384 10.1635 9.00572C10.096 9.86761 9.79195 10.6939 9.28517 11.3933L9.26152 11.4265C8.37257 12.8286 7.86662 13.8923 7.61917 14.8803L7.56558 15.0589ZM3.80014 14.5847H7.20306C7.47731 13.5983 7.99114 12.5298 8.85803 11.1705L8.90374 11.1072C9.35598 10.4784 9.62651 9.73657 9.68558 8.96347C9.74465 8.19038 9.58996 7.41592 9.23854 6.72528C8.88711 6.03464 8.35257 5.45458 7.69368 5.04889C7.0348 4.6432 6.27712 4.42761 5.50396 4.42582V4.42582C4.72928 4.42673 3.96992 4.6424 3.30979 5.04898C2.64966 5.45557 2.11446 6.03725 1.76332 6.72976C1.41218 7.42227 1.25877 8.19864 1.32004 8.97311C1.3813 9.74757 1.65487 10.49 2.1105 11.1183L2.14833 11.1736C3.0357 12.5772 3.5385 13.6126 3.80487 14.5847H3.80014Z" fill="#00CC66"></path>
        <path d="M5.50399 0.237106C5.40491 0.237106 5.3099 0.276575 5.23985 0.346828C5.16979 0.417082 5.13044 0.512367 5.13044 0.611721V1.86044C5.12396 1.96 5.15718 2.05807 5.2228 2.13306C5.28842 2.20806 5.38106 2.25384 5.48034 2.26034C5.57962 2.26684 5.67741 2.23352 5.7522 2.16771C5.82698 2.1019 5.87263 2.009 5.87911 1.90944V0.611721C5.8787 0.512222 5.83899 0.416941 5.76869 0.346732C5.69838 0.276523 5.6032 0.237105 5.50399 0.237106V0.237106Z" fill="#00CC66"></path>
        <path d="M5.50557 2.49743H5.46459C5.30271 2.48647 5.15176 2.41161 5.04481 2.28924C4.93786 2.16688 4.88364 2.007 4.89402 1.84462V0.611709C4.90198 0.454645 4.9698 0.306648 5.08346 0.198302C5.19713 0.0899562 5.34796 0.029541 5.50478 0.029541C5.6616 0.029541 5.81243 0.0899562 5.92609 0.198302C6.03976 0.306648 6.10758 0.454645 6.11554 0.611709V1.86201C6.11554 1.87307 6.11554 1.89994 6.11554 1.92681C6.10553 2.08183 6.03709 2.22723 5.9241 2.33349C5.81112 2.43976 5.66205 2.49893 5.50714 2.49901L5.50557 2.49743ZM5.50557 0.474192C5.4692 0.474192 5.43432 0.488681 5.4086 0.51447C5.38289 0.540259 5.36844 0.575237 5.36844 0.611709V1.86043C5.36545 1.88091 5.36685 1.90181 5.37256 1.9217C5.37827 1.9416 5.38815 1.96005 5.40154 1.97581C5.41315 1.98988 5.42755 2.00137 5.44384 2.00953C5.46012 2.0177 5.47792 2.02236 5.49611 2.02323C5.51429 2.02479 5.53259 2.02266 5.54992 2.01695C5.56726 2.01125 5.58326 2.00209 5.59698 1.99004C5.62485 1.96544 5.64185 1.93077 5.64427 1.89362V0.611709C5.64345 0.57495 5.6283 0.539974 5.60208 0.514272C5.57587 0.48857 5.54066 0.474183 5.50399 0.474192H5.50557Z" fill="#00CC66"></path>
        <path d="M10.1048 1.70867C10.0433 1.70669 9.98225 1.7201 9.92721 1.7477C9.87218 1.77529 9.82486 1.81621 9.78954 1.86674L9.08027 2.891C9.02363 2.97254 9.00161 3.0733 9.01905 3.17112C9.03649 3.26895 9.09196 3.35581 9.17327 3.41262C9.25457 3.46942 9.35505 3.49151 9.45259 3.47402C9.55014 3.45653 9.63676 3.4009 9.6934 3.31936L10.4027 2.29193C10.43 2.25105 10.4491 2.20516 10.4587 2.15689C10.4684 2.10862 10.4684 2.05892 10.4589 2.01062C10.4494 1.96232 10.4305 1.91638 10.4033 1.87542C10.376 1.83446 10.341 1.79928 10.3002 1.7719C10.2421 1.73323 10.1745 1.71135 10.1048 1.70867V1.70867Z" fill="#00CC66"></path>
        <path d="M9.38444 3.71769C9.27298 3.7174 9.16373 3.6865 9.06855 3.62832C8.97338 3.57015 8.89591 3.48693 8.84458 3.38772C8.79324 3.2885 8.77 3.17707 8.77737 3.06554C8.78473 2.95401 8.82244 2.84663 8.88637 2.75507L9.59407 1.73871C9.6521 1.65633 9.72949 1.58958 9.8194 1.54436C9.9093 1.49914 10.0089 1.47686 10.1095 1.47949C10.218 1.48281 10.3238 1.51507 10.4158 1.57296C10.5078 1.63084 10.5828 1.71226 10.633 1.80884C10.6833 1.90541 10.7069 2.01367 10.7016 2.12246C10.6963 2.23126 10.6622 2.33668 10.6028 2.42788L9.88724 3.46004C9.83006 3.54016 9.75456 3.60536 9.66708 3.65019C9.5796 3.69501 9.48268 3.71816 9.38444 3.71769V3.71769ZM10.0874 1.94578C10.0654 1.94583 10.0438 1.95117 10.0243 1.96134C10.0049 1.97152 9.98812 1.98624 9.9755 2.00426L9.26781 3.02695C9.25708 3.04154 9.24944 3.05819 9.24538 3.07586C9.24131 3.09353 9.2409 3.11185 9.24416 3.12969C9.2485 3.15693 9.2609 3.18223 9.27976 3.20231C9.29862 3.22239 9.32306 3.23632 9.34992 3.24228C9.37677 3.24825 9.4048 3.24598 9.43035 3.23576C9.4559 3.22555 9.4778 3.20787 9.4932 3.18501L10.2056 2.15601C10.2155 2.14161 10.2222 2.12534 10.2255 2.1082C10.2287 2.09106 10.2284 2.07343 10.2245 2.05642C10.2215 2.03863 10.2147 2.02168 10.2046 2.0067C10.1946 1.99172 10.1815 1.97904 10.1662 1.96949C10.1451 1.95418 10.1198 1.94588 10.0937 1.94578V1.94578H10.0874Z" fill="#00CC66"></path>
        <path d="M0.900004 1.65969C0.850949 1.65948 0.802333 1.66896 0.756932 1.6876C0.711532 1.70623 0.670236 1.73365 0.635402 1.76829C0.600568 1.80293 0.572879 1.84411 0.553916 1.88948C0.534952 1.93485 0.525085 1.98353 0.524878 2.03272C0.524409 2.11096 0.54869 2.18733 0.594229 2.25085L1.30823 3.27353C1.36487 3.35507 1.45149 3.4107 1.54904 3.42819C1.64658 3.44568 1.74705 3.4236 1.82836 3.36679C1.90967 3.30999 1.96514 3.22312 1.98258 3.1253C2.00002 3.02748 1.978 2.92671 1.92135 2.84518V2.84518L1.20735 1.82091C1.17275 1.77131 1.12677 1.73077 1.07328 1.70271C1.0198 1.67466 0.960367 1.6599 0.900004 1.65969Z" fill="#00CC66"></path>
        <path d="M1.61556 3.67028C1.51719 3.6708 1.42018 3.64734 1.33286 3.6019C1.24555 3.55647 1.17055 3.49043 1.11434 3.40947L0.400345 2.38679C0.326679 2.28359 0.287502 2.15964 0.288438 2.03272C0.289269 1.87089 0.353851 1.71595 0.468108 1.60166C0.582365 1.48737 0.737036 1.42301 0.898411 1.42259V1.42259C0.996845 1.42265 1.09381 1.44653 1.18107 1.49221C1.26833 1.53789 1.34331 1.60402 1.39963 1.68498L2.11205 2.70766C2.158 2.77346 2.19058 2.8477 2.20792 2.92612C2.22527 3.00455 2.22704 3.08564 2.21313 3.16475C2.19923 3.24386 2.16992 3.31945 2.12689 3.38721C2.08385 3.45496 2.02793 3.51355 1.96232 3.55963C1.86107 3.63188 1.73982 3.67056 1.61556 3.67028V3.67028ZM0.898411 1.89679C0.862043 1.89679 0.827164 1.91128 0.801448 1.93707C0.775732 1.96285 0.761285 1.99783 0.761285 2.0343C0.760943 2.06269 0.769792 2.09042 0.786504 2.11334L1.5005 3.1376C1.52197 3.16752 1.55418 3.18792 1.59034 3.1945C1.62607 3.20085 1.66284 3.1929 1.69279 3.17237C1.72263 3.15085 1.74298 3.11855 1.74954 3.08228C1.75586 3.04645 1.74794 3.00957 1.72747 2.97953L1.01347 1.95685C1.00053 1.93829 0.983311 1.92314 0.963279 1.91268C0.943247 1.90222 0.920994 1.89677 0.898411 1.89679V1.89679Z" fill="#00CC66"></path>
        <path d="M4.84512 11.1641C4.77943 11.1637 4.7155 11.1427 4.66229 11.1041C4.59438 11.0552 4.54859 10.9813 4.535 10.8986C4.5214 10.8159 4.54111 10.7312 4.58979 10.6631L5.84125 8.90697H4.10748L5.82076 6.49489C5.84488 6.46106 5.8754 6.43232 5.91059 6.41031C5.94578 6.38831 5.98495 6.37347 6.02585 6.36664C6.06676 6.35982 6.10861 6.36114 6.14901 6.37053C6.1894 6.37993 6.22756 6.39721 6.2613 6.42139C6.29504 6.44557 6.3237 6.47618 6.34564 6.51147C6.36758 6.54676 6.38238 6.58604 6.38918 6.62707C6.39599 6.66809 6.39467 6.71006 6.3853 6.75057C6.37594 6.79108 6.35871 6.82935 6.33459 6.86318L5.33058 8.27471H7.06435L5.10204 11.0314C5.07288 11.0724 5.03434 11.1059 4.98965 11.129C4.94496 11.1521 4.8954 11.1642 4.84512 11.1641V11.1641Z" fill="#00CC66"></path>
        <path d="M4.8451 11.4012C4.7437 11.4011 4.64429 11.373 4.5578 11.3199C4.47131 11.2668 4.40108 11.1909 4.35482 11.1004C4.30856 11.0099 4.28807 10.9084 4.29559 10.807C4.30312 10.7056 4.33837 10.6082 4.39747 10.5256L5.38099 9.14407H3.64722L5.62845 6.35738C5.67084 6.29791 5.72456 6.24745 5.78651 6.20892C5.84847 6.1704 5.91742 6.14457 5.98939 6.13293C6.0609 6.12075 6.13413 6.12301 6.20476 6.13957C6.2754 6.15612 6.34203 6.18664 6.40076 6.22935C6.51987 6.31447 6.60039 6.44355 6.62462 6.58819C6.64886 6.73284 6.61483 6.88122 6.53001 7.0007L5.79237 8.03761H7.52614L5.2943 11.1689C5.24331 11.2407 5.17593 11.2993 5.09779 11.3397C5.01966 11.3801 4.93302 11.4012 4.8451 11.4012V11.4012ZM4.57084 8.66987H6.30462L4.78205 10.8022C4.77604 10.8105 4.77176 10.82 4.76946 10.8301C4.76716 10.8401 4.76688 10.8505 4.76864 10.8607C4.7704 10.8709 4.77417 10.8806 4.77972 10.8892C4.78527 10.8979 4.79249 10.9054 4.80096 10.9112C4.81326 10.9217 4.82896 10.9274 4.8451 10.927C4.85776 10.9272 4.87027 10.9243 4.88154 10.9185C4.89281 10.9128 4.90249 10.9043 4.90972 10.8939L6.60566 8.51181H4.87189L6.147 6.72567C6.15305 6.71718 6.15736 6.70756 6.15968 6.69739C6.16201 6.68722 6.1623 6.67668 6.16054 6.6664C6.15878 6.65611 6.15501 6.64627 6.14944 6.63746C6.14387 6.62864 6.13661 6.62101 6.12809 6.61503C6.11981 6.60887 6.11038 6.60444 6.10036 6.602C6.09035 6.59956 6.07995 6.59915 6.06977 6.6008C6.04896 6.6051 6.03045 6.61691 6.01776 6.63399L4.57084 8.66987Z" fill="#00CC66"></path>
    </g>
    <defs>
        <clipPath id="clip0">
            <rect width="11" height="20" fill="white"></rect>
        </clipPath>
    </defs>
</svg>
