<svg width="18" height="18" viewBox="0 0 18 18" fill="none" xmlns="http://www.w3.org/2000/svg">
<g clip-path="url(#clip0)">
<path d="M17.5985 10.2392C17.8851 9.83768 18.0155 9.34543 17.9654 8.85462C17.97 8.80859 17.97 8.7622 17.9654 8.71616C17.9713 8.66094 17.9713 8.60523 17.9654 8.55001C17.9012 8.33584 17.825 8.1255 17.7369 7.92001C17.6011 7.54603 17.355 7.22206 17.0311 6.99091C16.7073 6.75976 16.3209 6.63231 15.9231 6.62539H13.0362C13.0628 5.86288 13.1322 5.10246 13.2438 4.3477C13.3949 3.81887 13.4672 3.27068 13.4585 2.72078C13.4528 2.292 13.3708 1.86767 13.2162 1.4677C13.0929 1.16258 12.9172 0.881411 12.6969 0.636932C12.4399 0.343486 12.0993 0.13572 11.7208 0.0415474C11.492 -0.0017235 11.2572 -0.0017235 11.0285 0.0415474C10.7756 0.0869835 10.5378 0.193979 10.3362 0.353086C10.142 0.523598 10.0023 0.747533 9.93462 0.996932C9.88632 1.1469 9.86066 1.30324 9.85846 1.46078C9.85549 1.63969 9.87173 1.81841 9.90692 1.99386C9.91536 2.0744 9.91536 2.15561 9.90692 2.23616C9.73631 3.02142 9.50485 3.79221 9.21462 4.54155C9.11769 4.77001 9.00692 5.00539 8.88231 5.23386C8.39624 6.25418 7.73287 7.18009 6.92308 7.96847C6.59292 8.27045 6.20734 8.50556 5.78769 8.66078C5.69978 8.40145 5.53314 8.17602 5.31099 8.01593C5.08885 7.85584 4.82228 7.76906 4.54846 7.7677H1.30154C0.961628 7.76938 0.635711 7.90327 0.392784 8.14103C0.149857 8.37879 0.00898897 8.70175 6.4398e-07 9.04155V16.6569C-0.00460996 16.8311 0.0255982 17.0044 0.0888533 17.1667C0.152108 17.329 0.247137 17.477 0.368365 17.6021C0.489594 17.7272 0.634582 17.8269 0.794825 17.8952C0.955068 17.9635 1.12734 17.9991 1.30154 18H4.54846C4.89429 17.9982 5.22532 17.8595 5.46921 17.6143C5.7131 17.3691 5.85001 17.0374 5.85 16.6915V10.0869C6.61175 9.90322 7.31445 9.52925 7.89231 9.00001C8.83986 8.10847 9.61852 7.05305 10.1908 5.88462C10.3223 5.6077 10.4469 5.35847 10.5577 5.10232C10.9042 4.21874 11.1706 3.30584 11.3538 2.37462C11.3828 2.16099 11.3828 1.94442 11.3538 1.73078C11.3479 1.65474 11.3479 1.57835 11.3538 1.50232C11.3471 1.45177 11.3471 1.40055 11.3538 1.35001C11.3538 1.39155 11.3538 1.41924 11.3538 1.44001L11.2846 1.10078L11.4646 1.44001C11.557 1.46875 11.6389 1.52414 11.7 1.59924C11.8105 1.71795 11.8974 1.85656 11.9562 2.0077C12.0232 2.25562 12.0466 2.5133 12.0254 2.76924C12.0266 3.18842 11.9683 3.60566 11.8523 4.00847V4.08462C11.718 5.00198 11.6417 5.92689 11.6238 6.85385C11.628 7.17086 11.7501 7.47494 11.9665 7.70667C12.1829 7.9384 12.4779 8.08111 12.7938 8.10693H15.9231C16.03 8.10601 16.1345 8.13809 16.2225 8.1988C16.3105 8.25952 16.3776 8.3459 16.4146 8.44616C16.5046 8.66078 16.5531 8.79924 16.5669 8.83386C16.5643 8.87997 16.5643 8.9262 16.5669 8.97232C16.5954 9.12075 16.5656 9.27445 16.4838 9.40155L16.4215 9.4777C16.3101 9.59726 16.2168 9.73255 16.1446 9.87924C16.0632 10.0458 16.0349 10.2333 16.0634 10.4165C16.0918 10.5997 16.1758 10.7698 16.3038 10.9039C16.3502 10.9701 16.3874 11.0423 16.4146 11.1185C16.4146 11.1185 16.4146 11.2708 15.9369 11.6654C15.7158 11.8187 15.5505 12.0398 15.4662 12.2954C15.4245 12.466 15.4191 12.6435 15.4501 12.8163C15.481 12.9892 15.5478 13.1537 15.6462 13.2992C15.6533 13.344 15.6487 13.3898 15.633 13.4322C15.6172 13.4747 15.5907 13.5123 15.5562 13.5415C15.3957 13.5938 15.2491 13.6813 15.1269 13.7977C14.981 13.9417 14.8803 14.1253 14.8373 14.3257C14.7942 14.5262 14.8107 14.7349 14.8846 14.9262C14.9158 15.0139 14.9528 15.0995 14.9954 15.1823C14.9954 15.2377 15.03 15.2585 14.9954 15.2931C14.9184 15.3689 14.826 15.4273 14.7245 15.4643C14.623 15.5014 14.5147 15.5162 14.4069 15.5077H9C8.80904 15.5077 8.62591 15.5836 8.49088 15.7186C8.35586 15.8536 8.28 16.0367 8.28 16.2277C8.28 16.4187 8.35586 16.6018 8.49088 16.7368C8.62591 16.8718 8.80904 16.9477 9 16.9477H14.4346C14.7634 16.9558 15.0897 16.8896 15.3893 16.7542C15.689 16.6187 15.9542 16.4175 16.1654 16.1654C16.4079 15.8529 16.5173 15.4573 16.47 15.0646C16.4557 14.9502 16.4254 14.8383 16.38 14.7323C16.667 14.542 16.8877 14.2673 17.0117 13.946C17.1358 13.6248 17.1569 13.273 17.0723 12.9392C17.0507 12.8556 17.0206 12.7744 16.9823 12.6969C17.7369 12.0739 18.0277 11.4162 17.8408 10.7377C17.7826 10.5615 17.7011 10.3938 17.5985 10.2392ZM4.44462 9.16616V16.5669H1.43308V9.16616H4.44462Z" fill="#080F22"/>
</g>
<defs>
<clipPath id="clip0">
<rect width="18" height="18" fill="white"/>
</clipPath>
</defs>
</svg>
