<svg xmlns="http://www.w3.org/2000/svg" xmlns:xlink="http://www.w3.org/1999/xlink" viewBox="0 0 317.11 122.97">
    <defs>
        <linearGradient id="gradient_c" x1="37.5" y1="0.86" x2="37.5" y2="83.39" gradientUnits="userSpaceOnUse">
            <stop offset="0" stop-color="#21ba72"/>
            <stop offset="1" stop-color="#0087cd"/>
        </linearGradient>
    </defs>
    <g>
        <path style="fill:#21a038;" d="M56.69,23.65a31,31,0,0,1,3.7,6.13L32.3,50.48,20.56,43.13V34.28L32.3,41.63Z"
              transform="translate(0 0)"/>
        <path style="fill:url(#gradient_c);"
              d="M55.21,89.56H19.82l-1.05-1a26.52,26.52,0,0,1-7.94-19.23,14.43,14.43,0,0,0-3.08-9A37.5,37.5,0,1,1,75,37.5a37.14,37.14,0,0,1-7.78,22.86,14.74,14.74,0,0,0-3,9.12,26.53,26.53,0,0,1-7.91,19ZM22.86,82.33h29.3A19.26,19.26,0,0,0,57,69.56,22,22,0,0,1,61.5,55.94,30.27,30.27,0,0,0,35.34,7.3,30.27,30.27,0,0,0,13.48,55.92a21.78,21.78,0,0,1,4.57,13.45h0a19.6,19.6,0,0,0,.27,3.41A19,19,0,0,0,22.86,82.33Z"
              transform="translate(0 0)"/>
        <path d="M112.41,55.27l28.25-38.68h10.06V68.36h-9.24V29.09l-28.4,39.27h-9.91V16.59h9.24Z"
              transform="translate(0 0)"/>
        <path d="M167.14,59.86c3-7,5.1-16.79,5.33-32.54l.15-10.73H209V59.86h6V78h-8.65V68.36H170.17V78h-8.65V59.86Zm9,0h23.6V25.1H181.05v2.44C180.75,41.07,179.12,51.72,176.16,59.86Z"
              transform="translate(0 0)"/>
        <path d="M252.72,25.1H235.64V37.45h23.81V46H235.64V59.86H263v8.5H226.39V16.59h38Z"
              transform="translate(0 0)"/>
        <path d="M307.51,52.24h-8.58c-1.48,0-2.81-.07-4.07-.15l-10.5,16.27h-10.8l12.13-18c-6.95-2.59-10.06-7.84-10.06-15.68,0-12,8.14-18.12,23.23-18.12h17.89V68.36h-9.24Zm-9.39-8.5h9.39V25.1h-9.25c-8.65,0-13,2.81-13,9.84C285.25,41.22,289.09,43.74,298.12,43.74Z"
              transform="translate(0 0)"/>
        <path style="fill:#b5b5b5;"
              d="M119.12,99.25a11.17,11.17,0,0,0-6-1.6c-4.63,0-7,2.16-7,8.43,0,6.86,2.76,9,7.3,9a13.35,13.35,0,0,0,6.3-1.69v2.85a13.87,13.87,0,0,1-6.33,1.38c-6.92,0-10.21-3.26-10.21-11.22s3.41-11.22,10.09-11.22a18,18,0,0,1,5.86,1Z"
              transform="translate(0 0)"/>
        <path style="fill:#b5b5b5;"
              d="M140.65,96.21c-.63.35-2.16.5-5.64.72-4.55.28-5.55,2.1-6,7.15l.1,0a7.38,7.38,0,0,1,6.26-3.17c4.11,0,6.71,1.69,6.71,7.71,0,6.36-2.76,9-7.71,9-5.32,0-7.89-3.16-7.89-10.4,0-8.65,2-12.25,7.48-13,1.63-.22,5.39-.41,6.68-1.07ZM139.33,109c0-4.41-1.72-5.64-4.76-5.64-3.2,0-5.39,1.82-5.39,5.05,0,4.95,1.91,6.8,5.26,6.8S139.33,113.32,139.33,109Z"
              transform="translate(0 0)"/>
        <path style="fill:#b5b5b5;"
              d="M151.82,110c0,3.57,1.91,5.35,5.55,5.35a8.18,8.18,0,0,0,5.07-1.81v2.69a9,9,0,0,1-5.14,1.47c-5.35,0-8.11-2.5-8.11-8.89,0-5.43,2.63-8.37,7.49-8.37,5.14,0,7,3.16,7,7.86V110Zm0-2.26h9.24c0-3.38-1.34-4.95-4.41-4.95S151.82,104.33,151.82,107.71Z"
              transform="translate(0 0)"/>
        <path style="fill:#b5b5b5;"
              d="M171.6,100.72H174l.15,2.92c.88-2.17,2.76-3.23,5.8-3.23,4.29,0,6.42,2.38,6.42,8.27,0,6.46-2.35,9-6.86,9-2.82,0-4.48-1.19-5.3-2.56V123H171.6Zm7.36,14.6c3.48,0,4.79-1.75,4.79-6.48,0-4.55-1.66-6.08-4.76-6.08-3.29,0-4.8,2-4.8,4.57v3.33C174.19,113.51,175.92,115.32,179,115.32Z"
              transform="translate(0 0)"/>
        <path style="fill:#b5b5b5;"
              d="M192.52,114.35a2.1,2.1,0,0,0,.84.16c1.54,0,3.11-1.16,3.7-14.57l.19-4.54h13.41v21.93h-2.82V97.9h-7.93l-.09,2.13c-.69,15.92-3.07,17.55-6,17.55a3.53,3.53,0,0,1-1.31-.19Z"
              transform="translate(0 0)"/>
        <path style="fill:#b5b5b5;"
              d="M219.82,100.72h2.6v8.09c0,1.94-.09,4-.18,4.82l.12.06c.79-1.34,1.69-2.6,2.6-3.85l6.3-9.12h2.29v16.61H231v-6.71c0-2.41.09-5.13.19-6.29l-.1,0a35,35,0,0,1-2.44,3.83l-6.46,9.21h-2.32Z"
              transform="translate(0 0)"/>
        <path style="fill:#b5b5b5;"
              d="M241.44,113.48a9.5,9.5,0,0,0,5.8,1.84c2.53,0,3.82-.81,3.82-2.91,0-1.85-1.06-2.41-4.54-2.41h-2.17v-2.07h2.51c2.38,0,3.39-.91,3.39-2.73s-.73-2.47-3.39-2.47a7.54,7.54,0,0,0-5.11,1.72v-3a12.57,12.57,0,0,1,5.58-1c4.11,0,5.55,1.53,5.55,4,0,2.32-.57,3.64-2.63,4.23a3.32,3.32,0,0,1,3.41,3.57c0,3.76-2,5.42-7.17,5.42a13.34,13.34,0,0,1-5.05-1Z"
              transform="translate(0 0)"/>
        <path style="fill:#b5b5b5;"
              d="M261.61,100.72h2.6v8.09c0,1.94-.1,4-.19,4.82l.12.06c.79-1.34,1.7-2.6,2.61-3.85l6.29-9.12h2.29v16.61h-2.6v-6.71c0-2.41.09-5.13.19-6.29l-.1,0a35,35,0,0,1-2.44,3.83l-6.46,9.21h-2.31Z"
              transform="translate(0 0)"/>
        <path style="fill:#b5b5b5;" d="M284.24,100.72h2.59v7h8.28v-7h2.6v16.61h-2.6v-7.18h-8.28v7.18h-2.59Z"
              transform="translate(0 0)"/>
        <path style="fill:#b5b5b5;" d="M306.61,100.72h10.5v2.45h-7.9v14.16h-2.6Z" transform="translate(0 0)"/>
        <rect style="fill:#0087cd;" x="20.46" y="96.54" width="33.67" height="7.09"/>
        <rect style="fill:#0087cd;" x="24.64" y="110.33" width="25.33" height="7.09"/>
    </g>
</svg>
