<svg width="21" height="21" viewBox="0 0 21 21" fill="none" xmlns="http://www.w3.org/2000/svg">
<path d="M2.625 0H18.375C19.0712 0 19.7389 0.273936 20.2312 0.761547C20.7234 1.24916 21 1.9105 21 2.60008V13.8671C21 14.5567 20.7234 15.218 20.2312 15.7056C19.7389 16.1933 19.0712 16.4672 18.375 16.4672H17.5V21L12.355 16.4672H2.625C1.92881 16.4672 1.26113 16.1933 0.768845 15.7056C0.276562 15.218 0 14.5567 0 13.8671V2.60008C0 1.9105 0.276562 1.24916 0.768845 0.761547C1.26113 0.273936 1.92881 0 2.625 0V0ZM1.75 13.8671C1.75 14.097 1.84219 14.3174 2.00628 14.48C2.17038 14.6425 2.39293 14.7338 2.625 14.7338H13.02L15.75 17.1345V14.7338H18.375C18.6071 14.7338 18.8296 14.6425 18.9937 14.48C19.1578 14.3174 19.25 14.097 19.25 13.8671V2.60008C19.25 2.37022 19.1578 2.14977 18.9937 1.98724C18.8296 1.8247 18.6071 1.73339 18.375 1.73339H2.625C2.39293 1.73339 2.17038 1.8247 2.00628 1.98724C1.84219 2.14977 1.75 2.37022 1.75 2.60008V13.8671Z" fill="white"/>
</svg>
