<svg width="23" height="23" viewBox="0 0 23 23" fill="none" xmlns="http://www.w3.org/2000/svg">
<g clip-path="url(#clip0)">
<path d="M16 8C16 6.41775 15.5308 4.87103 14.6518 3.55544C13.7727 2.23985 12.5233 1.21447 11.0615 0.608967C9.59966 0.00346625 7.99113 -0.15496 6.43928 0.153721C4.88743 0.462403 3.46197 1.22433 2.34315 2.34315C1.22433 3.46197 0.462403 4.88743 0.153721 6.43928C-0.15496 7.99113 0.00346625 9.59966 0.608967 11.0615C1.21447 12.5233 2.23985 13.7727 3.55544 14.6518C4.87103 15.5308 6.41775 16 8 16C9.77666 16.0022 11.5025 15.407 12.9 14.31L13.59 15L12.59 16L19 22.41L22.41 19L16 12.59L15 13.59L14.31 12.9C15.407 11.5025 16.0022 9.77666 16 8ZM19.59 19L19 19.59L15.41 16L16 15.41L19.59 19ZM8 14C6.81332 14 5.65328 13.6481 4.66658 12.9888C3.67989 12.3295 2.91085 11.3925 2.45673 10.2961C2.0026 9.19975 1.88378 7.99335 2.11529 6.82946C2.3468 5.66558 2.91825 4.59648 3.75736 3.75736C4.59648 2.91825 5.66558 2.3468 6.82946 2.11529C7.99335 1.88378 9.19975 2.0026 10.2961 2.45673C11.3925 2.91085 12.3295 3.67989 12.9888 4.66658C13.6481 5.65328 14 6.81332 14 8C14 9.5913 13.3679 11.1174 12.2426 12.2426C11.1174 13.3679 9.5913 14 8 14Z" fill="#B1BFE1"/>
</g>
<defs>
<clipPath id="clip0">
<rect width="22.41" height="22.41" fill="white"/>
</clipPath>
</defs>
</svg>
